<?xml version="1.0" standalone="no"?>
<!DOCTYPE svg PUBLIC "-//W3C//DTD SVG 20010904//EN"
 "http://www.w3.org/TR/2001/REC-SVG-20010904/DTD/svg10.dtd">
<svg version="1.0" xmlns="http://www.w3.org/2000/svg"
 width="1200.000000pt" height="1200.000000pt" viewBox="0 0 1200.000000 1200.000000"
 preserveAspectRatio="xMidYMid meet">

<g transform="translate(0.000000,1200.000000) scale(0.100000,-0.100000)"
fill="#000000" stroke="none">
<path d="M8010 10732 l0 -909 43 -13 c104 -31 192 -64 195 -72 2 -4 15 -8 28
-8 13 0 32 -4 42 -9 9 -5 29 -14 45 -20 15 -6 39 -16 55 -22 15 -6 35 -15 44
-20 10 -5 25 -9 33 -9 8 0 15 -4 15 -10 0 -5 9 -10 19 -10 11 0 23 -4 26 -10
3 -5 15 -10 25 -10 10 0 21 -6 23 -12 3 -7 6 -1 6 14 1 15 5 29 10 32 5 3 12
26 15 51 4 24 11 47 17 50 5 4 9 26 9 50 0 24 5 47 10 50 6 3 10 32 10 63 1
31 7 75 15 97 18 50 21 345 4 362 -6 6 -15 48 -20 94 -6 46 -12 105 -15 132
-3 26 -10 47 -15 47 -5 0 -12 18 -15 40 -4 22 -11 43 -15 46 -5 3 -9 18 -9 34
0 16 -4 32 -10 35 -5 3 -10 13 -10 20 0 22 -100 238 -112 243 -5 2 -8 12 -8
22 0 9 -6 23 -13 29 -8 6 -25 32 -38 58 -13 27 -29 52 -36 56 -7 4 -13 15 -13
22 0 8 -4 15 -10 15 -5 0 -10 5 -10 10 0 6 -11 23 -25 38 -14 15 -25 31 -25
37 0 6 -11 19 -25 29 -14 10 -25 23 -25 28 0 5 -18 28 -40 51 -94 98 -155 157
-162 157 -5 0 -8 7 -8 15 0 8 -7 15 -15 15 -13 0 -15 -108 -15 -908z"/>
<path d="M10100 11282 c0 -4 16 -18 35 -32 72 -53 275 -269 346 -370 84 -120
164 -273 204 -395 9 -27 21 -58 26 -67 5 -10 9 -31 9 -48 0 -17 4 -38 9 -48
18 -31 41 -212 41 -312 0 -100 -12 -211 -32 -285 -5 -22 -12 -59 -15 -82 -3
-24 -9 -43 -14 -43 -5 0 -9 -15 -9 -34 0 -19 -4 -38 -10 -41 -5 -3 -10 -17
-10 -30 0 -13 -7 -30 -15 -39 -8 -8 -15 -26 -15 -40 0 -14 -4 -26 -10 -26 -5
0 -10 -9 -10 -20 0 -11 -11 -38 -25 -60 -14 -22 -25 -45 -26 -52 0 -7 -9 -26
-20 -43 -11 -16 -22 -38 -25 -47 -4 -10 -10 -18 -15 -18 -5 0 -9 -9 -9 -20 0
-11 -4 -20 -10 -20 -5 0 -10 -4 -10 -10 0 -5 11 -10 25 -10 14 0 25 5 25 10 0
6 20 10 45 10 25 0 45 5 45 10 0 6 16 10 35 10 19 0 35 5 35 10 0 6 23 10 50
10 28 0 50 5 50 10 0 6 20 10 45 10 25 0 45 5 45 10 0 6 23 10 50 10 28 0 50
5 50 10 0 6 16 10 35 10 19 0 35 5 35 10 0 6 20 10 45 10 25 0 45 5 45 10 0 6
23 10 50 10 28 0 50 5 50 10 0 6 16 10 35 10 19 0 35 5 35 10 0 6 23 10 50 10
28 0 50 5 50 10 0 6 20 10 45 10 25 0 45 5 45 10 0 6 23 10 50 10 28 0 50 5
50 10 0 6 16 10 35 10 19 0 35 5 35 10 0 6 6 10 13 10 15 0 11 56 -4 66 -5 3
-9 18 -9 35 0 16 -4 29 -10 29 -5 0 -10 12 -10 26 0 14 -7 32 -15 40 -8 9 -15
24 -15 35 0 10 -4 19 -8 19 -4 0 -14 21 -21 48 -8 26 -17 49 -21 52 -10 8 -40
72 -40 87 0 7 -4 13 -10 13 -5 0 -10 5 -10 10 0 6 -11 28 -25 50 -14 22 -25
46 -25 55 0 8 -3 15 -8 15 -4 0 -16 17 -27 38 -21 40 -149 245 -165 265 -44
54 -60 76 -60 82 0 3 -6 12 -12 19 -7 7 -29 32 -48 56 -19 24 -39 48 -45 54
-5 6 -39 45 -75 86 -81 94 -248 261 -319 320 -30 25 -59 50 -65 55 -17 16 -69
58 -102 82 -16 12 -49 36 -74 55 -75 57 -167 117 -253 167 -90 52 -117 64
-117 53z"/>
<path d="M4045 8329 c68 -57 194 -188 237 -248 23 -31 45 -57 50 -59 4 -2 8
-9 8 -16 0 -7 11 -23 25 -36 14 -13 25 -28 25 -33 0 -6 11 -25 25 -43 14 -18
25 -37 25 -43 0 -6 5 -11 10 -11 6 0 10 -9 10 -19 0 -10 7 -21 15 -25 8 -3 15
-12 15 -21 0 -8 5 -15 10 -15 6 0 10 -7 10 -15 0 -10 11 -15 35 -15 19 0 35 5
35 10 0 6 23 10 50 10 28 0 50 5 50 10 0 6 16 10 35 10 19 0 35 5 35 10 0 6
23 10 50 10 28 0 50 5 50 10 0 6 20 10 45 10 25 0 45 5 45 10 0 6 16 10 35 10
19 0 35 5 35 10 0 6 23 10 50 10 28 0 50 5 50 10 0 6 20 10 45 10 25 0 45 5
45 10 0 6 23 10 50 10 28 0 50 5 50 10 0 6 16 10 35 10 19 0 35 5 35 10 0 6
16 10 35 10 19 0 35 5 35 10 0 6 -9 10 -19 10 -11 0 -21 3 -23 8 -9 22 -381
188 -518 231 -19 6 -62 20 -96 31 -33 11 -70 20 -82 20 -11 0 -24 5 -27 10 -3
6 -21 10 -40 10 -19 0 -37 5 -40 10 -3 6 -23 10 -44 10 -20 0 -41 4 -47 9 -5
5 -27 12 -49 15 -22 3 -69 10 -105 16 -60 10 -93 14 -280 35 l-65 8 40 -34z"/>
<path d="M1080 8209 c-349 -23 -558 -45 -862 -89 -75 -11 -142 -20 -149 -20
-9 0 -10 -3 -3 -10 5 -5 82 -24 169 -40 168 -32 439 -95 560 -130 17 -5 47
-14 68 -19 20 -6 54 -16 75 -22 20 -5 53 -15 72 -20 19 -6 47 -13 63 -16 15
-3 30 -9 33 -14 3 -5 16 -9 29 -9 13 0 27 -4 30 -10 3 -5 17 -10 30 -10 13 0
27 -4 30 -10 3 -5 17 -10 30 -10 13 0 27 -4 30 -10 3 -5 15 -10 26 -10 19 0
28 -4 76 -28 13 -7 30 -12 38 -12 8 0 23 -4 33 -9 9 -5 29 -14 45 -20 15 -6
39 -16 55 -22 15 -6 35 -15 44 -20 10 -5 25 -9 33 -9 8 0 23 -4 33 -9 21 -11
142 -67 197 -91 90 -40 342 -165 367 -182 14 -10 33 -18 42 -18 9 0 16 -4 16
-10 0 -5 7 -10 15 -10 8 0 15 -4 15 -9 0 -5 11 -12 24 -15 14 -3 32 -13 41
-22 12 -12 33 -16 83 -15 37 1 69 6 70 11 2 6 24 10 48 10 24 0 44 5 44 10 0
6 16 10 35 10 19 0 35 5 35 10 0 6 23 10 50 10 28 0 50 5 50 10 0 6 20 10 45
10 25 0 45 5 45 10 0 6 23 10 50 10 28 0 50 5 50 10 0 6 16 10 35 10 19 0 35
5 35 10 0 6 20 10 45 10 25 0 45 5 45 10 0 6 23 10 50 10 28 0 50 5 50 10 0 6
23 10 50 10 28 0 50 5 50 10 0 6 16 10 35 10 19 0 35 5 35 10 0 6 20 10 45 10
25 0 45 5 45 10 0 6 23 10 50 10 28 0 50 5 50 10 0 6 15 10 34 10 19 0 38 5
41 10 3 6 24 10 46 10 21 0 39 5 39 10 0 6 23 10 50 10 28 0 50 5 50 10 0 6
20 10 45 10 25 0 45 5 45 10 0 6 18 10 40 10 22 0 40 5 40 10 0 6 20 10 45 10
25 0 45 5 45 10 0 6 23 10 50 10 28 0 50 5 50 10 0 6 11 10 25 10 16 0 25 6
25 15 0 9 -9 15 -25 15 -14 0 -25 5 -25 10 0 6 -9 10 -19 10 -11 0 -23 5 -26
10 -3 6 -15 10 -26 10 -10 0 -19 5 -19 10 0 6 -11 10 -25 10 -14 0 -25 5 -25
10 0 6 -11 10 -25 10 -14 0 -25 5 -25 10 0 6 -9 10 -19 10 -11 0 -23 5 -26 10
-3 6 -15 10 -26 10 -10 0 -28 5 -39 10 -11 6 -29 15 -40 20 -11 6 -29 10 -40
10 -11 0 -20 5 -20 10 0 6 -11 10 -24 10 -14 0 -28 5 -31 10 -3 6 -17 10 -30
10 -13 0 -27 5 -30 10 -3 6 -19 10 -34 10 -15 0 -31 4 -37 8 -5 5 -29 14 -54
21 -25 8 -56 17 -70 21 -14 4 -45 13 -70 20 -25 7 -65 18 -90 25 -42 12 -62
17 -185 45 -220 50 -346 73 -565 100 -47 6 -114 15 -150 20 -67 9 -242 23
-505 39 -188 12 -696 12 -875 0z"/>
</g>
</svg>
